<svg width="32" height="32" viewBox="0 0 32 32" fill="none" xmlns="http://www.w3.org/2000/svg">
<path d="M12.0513 26.7197C4.87179 28.8599 4.87179 23.1529 2 22.4395M22.1026 31V25.4785C22.1564 24.7981 22.0639 24.1142 21.8312 23.4722C21.5985 22.8301 21.2309 22.2446 20.7528 21.7547C25.2615 21.2553 30 19.5575 30 11.7674C29.9996 9.7754 29.2285 7.85981 27.8462 6.41708C28.5007 4.67431 28.4544 2.74797 27.7169 1.03823C27.7169 1.03823 26.0226 0.538864 22.1026 3.14982C18.8115 2.26355 15.3423 2.26355 12.0513 3.14982C8.13128 0.538864 6.43692 1.03823 6.43692 1.03823C5.69941 2.74797 5.65313 4.67431 6.30769 6.41708C4.91505 7.87051 4.14311 9.80342 4.15385 11.8102C4.15385 19.5432 8.89231 21.241 13.401 21.7975C12.9286 22.2825 12.5643 22.861 12.3317 23.4952C12.0992 24.1294 12.0036 24.8051 12.0513 25.4785V31" stroke="#212529" stroke-width="2" stroke-linecap="round" stroke-linejoin="round"/>
</svg>
