<svg width="32" height="32" viewBox="0 0 32 32" fill="none" xmlns="http://www.w3.org/2000/svg">
<path d="M21.6317 10.8421C23.9767 10.8421 26.2258 11.7737 27.884 13.4319C29.5422 15.0901 30.4738 17.3391 30.4738 19.6842V30H24.579V19.6842C24.579 18.9025 24.2685 18.1528 23.7158 17.6001C23.163 17.0474 22.4133 16.7368 21.6317 16.7368C20.85 16.7368 20.1003 17.0474 19.5476 17.6001C18.9948 18.1528 18.6843 18.9025 18.6843 19.6842V30H12.7896V19.6842C12.7896 17.3391 13.7211 15.0901 15.3793 13.4319C17.0376 11.7737 19.2866 10.8421 21.6317 10.8421Z" stroke="#212529" stroke-width="2" stroke-linecap="round" stroke-linejoin="round"/>
<path d="M6.89474 12.3158H1V30H6.89474V12.3158Z" stroke="#212529" stroke-width="2" stroke-linecap="round" stroke-linejoin="round"/>
<path d="M3.94737 7.89474C5.57516 7.89474 6.89474 6.57516 6.89474 4.94737C6.89474 3.31958 5.57516 2 3.94737 2C2.31958 2 1 3.31958 1 4.94737C1 6.57516 2.31958 7.89474 3.94737 7.89474Z" stroke="#212529" stroke-width="2" stroke-linecap="round" stroke-linejoin="round"/>
</svg>
